# xmcd
# 
# Track frame offsets:
#     150
#     26072
#     44817
#     61338
#     78166
#     94994
#     118247
#     134022
#     150026
#     165711
# 
# Disc length: 2380
# 
# Revision: 2
# Processed by: cddbd v1.5.2PL0 Copyright (c) Steve Scherf et al.
# Submitted via: fre:ac v1.0.27
# 
DISCID=83094a0a
DTITLE=Various Artist - Rec 57
DYEAR=0
DGENRE=Top 40
TTITLE0=Bon Jovi - Keep The Faith
TTITLE1=Calvin Harris - Thinking About You (Feat. Ayah Marar)
TTITLE2=Cee Lo Green - Bright Lights Bigger City
TTITLE3=Enrique Iglesias - Can You Hear Me
TTITLE4=Enrique Iglesias - Can You Hear Me.
TTITLE5=Infinity Ink - Infinity
TTITLE6=Kelis - Trick Me (Clean Version)
TTITLE7=Lily Allen - Hard Out Here
TTITLE8=Shakira - Can't Remember To Forget You (Feat. Rihanna)
TTITLE9=2 Fabiola - She's After My Piano (Eurosong 2014) [feat. Loredana]
EXTD=
EXTT0=
EXTT1=
EXTT2=
EXTT3=
EXTT4=
EXTT5=
EXTT6=
EXTT7=
EXTT8=
EXTT9=
PLAYORDER=
